<svg xmlns="http://www.w3.org/2000/svg" xmlns:xlink="http://www.w3.org/1999/xlink" version="1.1" id="Layer_1" x="0px" y="0px" viewBox="0 0 100 100" enable-background="new 0 0 100 100" xml:space="preserve" height="100px" width="100px">
<g>
	<path d="M62.003,70.833H37.997c-0.192,0-0.368-0.111-0.451-0.285c-8.281-17.343-10.169-32.563-5.613-45.239   C37.236,10.555,49.664,4.635,49.789,4.577c0.135-0.062,0.287-0.062,0.422,0c0.125,0.058,12.553,5.979,17.856,20.733   c4.556,12.676,2.668,27.896-5.613,45.239C62.371,70.723,62.195,70.833,62.003,70.833z M38.313,69.833h23.375   c8.042-16.966,9.875-31.824,5.445-44.167C62.356,12.356,51.64,6.43,50,5.589c-1.64,0.841-12.356,6.767-17.133,20.078   C28.438,38.009,30.271,52.868,38.313,69.833z"/>
</g>
<g>
	<path d="M20.878,80.361h-4.624c-0.27,0-0.491-0.214-0.5-0.483c-0.808-24.622,15.414-27.743,15.578-27.771   c0.266-0.043,0.53,0.134,0.578,0.406s-0.134,0.531-0.405,0.579c-0.63,0.112-15.326,2.995-14.765,26.27h3.658   c0.178-2.247,1.82-11.038,16.55-11.74c0.289-0.022,0.509,0.2,0.522,0.476c0.014,0.276-0.199,0.51-0.476,0.523   c-15.792,0.753-15.632,10.796-15.617,11.223c0.004,0.135-0.046,0.268-0.141,0.365C21.144,80.306,21.014,80.361,20.878,80.361z"/>
</g>
<g>
	<path d="M83.746,80.361h-4.624c-0.136,0-0.266-0.056-0.359-0.153c-0.095-0.098-0.145-0.23-0.141-0.365   c0.015-0.427,0.175-10.47-15.617-11.223c-0.276-0.013-0.489-0.248-0.476-0.523c0.013-0.275,0.243-0.495,0.522-0.476   c14.729,0.703,16.372,9.494,16.55,11.74h3.658c0.557-23.319-14.609-26.243-14.764-26.27c-0.272-0.048-0.454-0.307-0.406-0.579   c0.047-0.273,0.31-0.453,0.578-0.407c0.164,0.029,16.386,3.15,15.578,27.771C84.237,80.147,84.016,80.361,83.746,80.361z"/>
</g>
<g>
	<path d="M50,28.741c-2.529,0-4.587-2.058-4.587-4.587s2.058-4.587,4.587-4.587s4.587,2.058,4.587,4.587S52.529,28.741,50,28.741z    M50,20.566c-1.978,0-3.587,1.609-3.587,3.587s1.609,3.587,3.587,3.587s3.587-1.609,3.587-3.587S51.978,20.566,50,20.566z"/>
</g>
<g>
	<path d="M50,44.313c-2.529,0-4.587-2.058-4.587-4.587s2.058-4.587,4.587-4.587s4.587,2.058,4.587,4.587S52.529,44.313,50,44.313z    M50,36.138c-1.978,0-3.587,1.609-3.587,3.587s1.609,3.587,3.587,3.587s3.587-1.609,3.587-3.587S51.978,36.138,50,36.138z"/>
</g>
<g>
	<path d="M50,59.884c-2.529,0-4.587-2.058-4.587-4.587S47.471,50.71,50,50.71s4.587,2.058,4.587,4.587S52.529,59.884,50,59.884z    M50,51.71c-1.978,0-3.587,1.609-3.587,3.587s1.609,3.587,3.587,3.587s3.587-1.609,3.587-3.587S51.978,51.71,50,51.71z"/>
</g>
<g>
	<path d="M50.451,95.373c-0.127,0-0.253-0.048-0.35-0.143c-4.906-4.814-2.733-9.761,1.142-16.759   c1.333-2.409,1.79-4.565,1.286-6.073c-0.087-0.262,0.055-0.545,0.316-0.632c0.263-0.087,0.545,0.054,0.633,0.316   c0.602,1.802,0.131,4.179-1.36,6.874c-3.415,6.168-5.351,10.394-2.377,14.359c-0.044-1.416,0.225-3.52,1.743-5.545   c0.333-0.443,0.862-0.971,1.386-1.475c0.118-0.114,0.288-0.163,0.447-0.13c0.162,0.033,0.297,0.144,0.36,0.296   c0.479,1.144,1.222,2.099,2.288,2.928c-0.457-1.156-0.81-2.775-0.314-4.535c0.156-0.558,0.535-1.298,0.973-2.156l0.184-0.359   c0.018-0.035,0.039-0.067,0.063-0.097c3.273-3.863,3.605-6.933,1.047-9.66c-0.189-0.202-0.18-0.518,0.022-0.707   c0.199-0.188,0.518-0.179,0.706,0.022c2.925,3.117,2.606,6.698-0.975,10.947l-0.157,0.309c-0.413,0.81-0.771,1.509-0.9,1.972   c-0.807,2.866,1.079,5.394,1.099,5.419c0.142,0.187,0.135,0.448-0.019,0.627c-0.152,0.179-0.412,0.226-0.616,0.116   c-1.877-1.008-3.196-2.25-4.012-3.785c-0.307,0.308-0.592,0.614-0.781,0.867c-2.267,3.021-1.361,6.333-1.353,6.367   c0.063,0.218-0.03,0.451-0.226,0.567C50.628,95.35,50.539,95.373,50.451,95.373z"/>
</g>
<g>
	<path d="M46.012,89.061c-0.13,0-0.258-0.051-0.353-0.146c-0.557-0.554-2.392-2.549-2.658-4.949   c-0.131-1.181,0.152-2.538,0.631-3.718c-0.609,0.545-1.234,1.188-1.703,1.871c-0.097,0.141-0.257,0.241-0.429,0.216   c-0.171-0.005-0.327-0.098-0.414-0.245c-2.387-4.033-2.253-7.561,0.389-10.204c0.195-0.195,0.512-0.195,0.707,0   c0.195,0.195,0.195,0.512,0,0.707c-2.175,2.176-2.376,4.977-0.603,8.332c1.461-1.77,3.563-3.103,3.663-3.165   c0.217-0.137,0.504-0.087,0.661,0.118c0.157,0.204,0.135,0.494-0.054,0.67c-0.902,0.847-2.073,3.335-1.854,5.307   c0.149,1.351,0.921,2.597,1.555,3.417c0.214-3.458,1.316-5.365,2.909-7.749c1.579-2.362,2.294-4.801,2.124-7.25   c-0.019-0.275,0.189-0.514,0.465-0.534c0.267-0.012,0.514,0.188,0.533,0.464c0.186,2.675-0.585,5.324-2.29,7.875   c-1.679,2.511-2.779,4.458-2.779,8.481c0,0.202-0.122,0.384-0.309,0.462C46.142,89.048,46.076,89.061,46.012,89.061z"/>
</g>
<g>
	<path d="M59.429,72.74H40.571c-0.977,0-1.771-0.794-1.771-1.771c0-0.276,0.224-0.5,0.5-0.5s0.5,0.224,0.5,0.5   c0,0.425,0.346,0.771,0.771,0.771h18.857c0.426,0,0.771-0.346,0.771-0.771c0-0.276,0.224-0.5,0.5-0.5s0.5,0.224,0.5,0.5   C61.2,71.945,60.405,72.74,59.429,72.74z"/>
</g>
<g>
	<path d="M50,70.833c-0.276,0-0.5-0.224-0.5-0.5V59.838c0-0.276,0.224-0.5,0.5-0.5s0.5,0.224,0.5,0.5v10.495   C50.5,70.61,50.276,70.833,50,70.833z"/>
</g>
<g>
	<path d="M50,51.243c-0.276,0-0.5-0.224-0.5-0.5v-6.297c0-0.276,0.224-0.5,0.5-0.5s0.5,0.224,0.5,0.5v6.297   C50.5,51.019,50.276,51.243,50,51.243z"/>
</g>
<g>
	<path d="M50,35.85c-0.276,0-0.5-0.224-0.5-0.5v-6.997c0-0.276,0.224-0.5,0.5-0.5s0.5,0.224,0.5,0.5v6.997   C50.5,35.626,50.276,35.85,50,35.85z"/>
</g>
<g>
	<path d="M50,20.228c-0.276,0-0.5-0.224-0.5-0.5V5.03c0-0.276,0.224-0.5,0.5-0.5s0.5,0.224,0.5,0.5v14.697   C50.5,20.004,50.276,20.228,50,20.228z"/>
</g>
</svg>